<svg version="1.2" xmlns="http://www.w3.org/2000/svg" viewBox="0 0 2048 2048" width="128" height="128"><path fill-rule="evenodd" class="a" d="m1084.8 244c10.9 0.5 53.2 6.6 61.7 8 45.2 8 89.3 21.9 132.5 37.2 15.4 5.4 31.2 11.1 46 18.2 27.2 13 53.1 28.8 78.8 44.5 13.3 8.1 26.6 16.2 39.2 25.3 36.1 26.1 68.2 56.6 99.5 88.3 15.9 16 31.6 32.1 46.5 49 8.4 9.5 15.8 19.9 23.5 30 31.5 41.3 58.9 85.1 81 132.3 9.1 19.5 19.5 45.5 27.2 65.7 7.4 19.4 12.7 34.6 18.3 54.5 9.1 32.1 11.7 44.5 18.4 77.5 3.1 15 7.4 39.4 9.5 54.5 1.9 12.9 4.1 25.8 5.1 38.7 2.9 40.5 2.5 80.4 0 120.8-0.8 12.5-2.5 25-4 37.5-3.4 27.9-9.2 55.7-15.6 83-6.1 25.9-8.5 32.4-18.1 59.5-16.7 47.2-36.9 93.1-62.1 136.5-23 39.5-50.2 76.6-78.8 112.1-12 14.9-25.1 29.4-38.2 43.2-22 23-44.6 45.5-69.3 65.5-12.3 9.9-25.3 19.1-38.4 28-22.6 15.3-45.5 30.2-69.5 43.3-26.8 14.5-54.3 27.6-82.5 39.2-28.5 11.7-57.7 22.4-87.5 30.2-20.7 5.5-51.6 11.5-71.5 14.9-12.1 2.1-24.2 4.5-36.5 5.3-23.3 1.5-46.7 1.6-70 1.7q-32.5 0.3-65-0.7c-5.1-0.2-24.3-2.6-31-3.3-8.4-0.9-16.7-1.8-25-3.3-13-2.3-25.7-5.6-38.5-8.8-32-8-63.9-15.9-95-27.1-8.5-3-16.7-6.9-25-10.4-3.1-1.4-37.2-15.2-40.5-16.8-17.8-8.4-55.7-28.4-72.5-38.1-2.3-1.3-29.7-19.7-30.5-20.2-18.9-12.7-37.9-25.6-55.5-40.1-32.5-27-63.2-56.5-91.6-87.7-17.1-18.7-32.3-39.5-47.2-59.9-20.8-28.5-38.7-58.4-55.4-89.5-10.9-20.2-21.8-41.6-30.1-63-23.5-60.6-42.7-123-51.7-187.5-5.8-41.3-6.4-58-7.2-106.5-0.4-21.7-0.3-43.4 0.6-65 0.5-11.9 2.2-23.7 3.6-35.5 4.9-39.9 12.8-79.4 24.1-118 4.7-15.9 13.7-41.1 18.6-54.5 4.5-12.4 8.8-24.9 14-37 5.3-12.4 11.4-24.4 17.3-36.5 11.4-23.2 13-26.1 23.2-44.5 28.5-51.3 62-99.3 101.9-142.5 30.7-33.3 45.7-49 79-77.5 9.3-8 38.6-30 49.4-37.6 15.5-11.1 30.5-21.2 46.5-31.3 22.7-14.3 47.1-26.3 71.5-37.3 34.2-15.5 69.5-28.1 105.5-38.7 29.8-8.7 59.7-16.3 90.5-20.6 11-1.5 21.9-3.3 33-3.9 24.2-1.4 85.3-3.3 137.8-1.1zm-82.8 42.7c-34.1 0.8-68.4 4.5-102 10.3-19.6 3.4-42.1 9.2-61 14.6-31.4 9-62.2 19.5-92 33-34.2 15.4-66.8 33.4-98.5 53.4-19.6 12.3-36.5 23.8-54.5 38.1-22.4 17.8-41.1 35.8-61.6 56.4-27 27.1-36.6 37.2-58.4 64.5-9.2 11.5-17.2 23.3-25.4 35.5-4.8 7.3-25 37.9-30.3 47.5-13.4 24.1-33.1 63.7-44 88.5-4.4 10.1-8 20.6-11.8 31-25 67.2-43.1 137.6-48.4 209.3-3.3 43.7-2.3 87.5 2 131.2 1.8 19.1 5.7 40 9.4 58.5 6 29.3 11.2 52.6 20 81 17.1 55.2 41.2 108.7 71.3 158 11.2 18.5 22.4 36.6 35.2 54 22.4 30.5 49.3 59 76 85.6 21.9 21.7 46.1 44.2 70.6 63.5 12.8 10.1 28.5 20.7 42.4 29.7 15.5 9.9 31.3 19.5 47.5 28.2 16.8 9 31.8 17.1 49 25 47.8 21.8 98.3 37.6 149.5 48.8 14.1 3.1 29.5 6.5 44 8.7 28.1 4.2 56.6 6 85 6 90.2 0 180.5-16.4 263.5-52.5 27.7-12 55.6-25.9 82-40.5 7.6-4.2 22.7-14.1 30.5-19.2 10.7-7 29.6-19 40-26.7 8.2-6 33.5-26.3 41-32.9 15.7-14 37.4-35.8 51.4-50.7 29.2-31 54.9-65.3 78.6-100.6 18.4-27.4 26.9-39.7 41.8-67.9 28.1-53.3 49.8-110.8 63.5-169.5 3.8-16.2 9.3-45.3 11.6-61.5 1.7-11.5 3.5-22.9 4.3-34.5 1.4-20.8 2.1-41.7 2.3-62.5 0.1-18.7-0.3-37.4-1.3-56-0.6-10.5-2.1-21-3.3-31.5-2.8-24.5-6.7-48.5-12.1-72.5-4-17.9-11.5-49.9-17-67.5-5.1-16.6-17.9-50.9-24.6-67.5-22-54.7-50.3-107.5-84.5-155.5-7.1-9.9-20.9-27.1-27.1-34.5-28.8-34.6-60.3-67-95.1-95.6-19-15.7-39.1-29.9-59.5-43.6-12.4-8.2-27.3-18.1-40.5-25.5-18.3-10.3-37.8-19.8-56.7-28.7-38.7-18.1-78.9-33-120.3-43.3-14-3.4-27.1-5.8-41.5-8.2-37.2-6.4-74.3-10.1-112-11.3-9.7-0.3-19.3-0.3-29-0.1z"/><path fill-rule="evenodd" class="a" d="m1083.5 305.9c9.7 0.6 19.4 2.3 29 3.6 8.8 1.2 33.5 4.9 45 7.4 22.2 4.7 44.4 10.7 66 17.8 53.3 17.7 104 42.1 151 72.8 14.5 9.5 29.2 18.9 43 29.5 29.6 22.5 57.1 47.4 83 74.1 34.8 35.8 66.6 74.7 93.3 116.9 19.4 30.6 35 62.8 49.4 96 20.1 46.3 36.5 94.2 47.3 143.5 18.5 84 21.5 170.7 10.5 256-6.1 47.1-18.5 93.4-34.4 138-6.6 18.7-14.9 40.2-23.4 58.3-18.8 39.7-41.9 77.5-67.4 113.2-6.5 9-27.4 34.6-32.3 40.5-30.9 37.1-64.3 72.3-101.5 103.1-21.6 17.8-45.3 33.1-69 47.9-29 18.2-59.3 34.1-90.5 48.3-10.1 4.6-31.3 12.5-40 15.6-36.7 13.2-74.2 23.7-112.5 31.1-16.6 3.1-33.2 5.5-50 7-5.5 0.5-11 1.2-16.5 1.5-32.7 1.4-54.5 1.4-87.8-0.5-7.4-0.4-22.4-2.6-31.2-3.9-14.5-2-28.7-4.5-43-7.7-31-7.1-61.8-14.7-92-24.6-20-6.5-37.7-13.9-57-22.5-12.8-5.7-25.5-11.4-38-17.8-17.5-8.8-30.9-17.2-47-27.5-25.9-16.5-51.3-34.2-74.5-54.4-29.8-26-40.7-37.3-70.6-68.2-19-19.6-36.6-39.4-53-61-9.2-12.2-17.3-25-25.2-38.1-9-14.8-24.1-39.5-32.2-55.3-18.4-36.1-33.4-74-46-112.5-23.1-71-33-146.5-33-221 0-40.9 3.3-82.2 10.5-122.5 4.4-24.6 11.1-48.6 18.7-72.5 7.4-23.3 14-42.6 22.5-65 9.1-24.4 19-48.4 31-71.5 13.5-26.2 28.8-51 44.8-75.6 7.1-10.9 14.1-22.1 21.7-32.5 9.8-13.4 23.5-29.9 34.3-41.9 17.4-19.4 30.3-31.1 50.5-49.6 20.9-19 41.9-37.3 65-53.4 28.2-19.8 58.2-37.7 89-53.1 9.4-4.7 19-9 28.5-13.4 28.9-13.6 59.4-23.4 90-32.5 34-10 67.9-16.7 103-21 11.1-1.3 22.3-2.9 33.5-3.4 18.3-0.8 70.4-1.4 107.5 0.8zm-114.5 38.2c-10.8 0.8-56.8 8.2-63 9.4-42.8 8.3-85.4 20.8-125.5 37.9-40.3 17.3-79 38.2-115.5 62.5-7 4.7-23.8 16.2-30 21-15.1 11.7-34.3 28.4-48 41-7.9 7.3-15.9 14.7-23.3 22.6-30.4 31.7-57.9 66.5-81.6 103.5-14.4 22.4-26.5 46.3-38.3 70.1-5.4 10.6-10.8 21.2-15.7 32-3.4 7.5-6.3 15.2-9.3 22.9-3.7 9.2-9.8 25.2-13.2 35.5-13.2 39.3-24.6 79-31 120-8 50.7-7.8 102.5-4.2 153.5 0.7 9.8 4.4 35.6 6.2 46.5 2.7 15.7 7.5 40.9 11.4 55.5 3.5 13.6 7.7 27.1 11.9 40.5 4.1 13.4 12.8 39.7 19.1 55 14 33.6 30.3 66.5 49.5 97.5 9.3 15 23.4 36.5 33.8 50 22 28.5 44.3 52.3 69.9 78.1 16.3 16.5 39.8 39.3 59.8 54.6 15.4 11.7 30.7 21.4 46.9 31.8 7.3 4.6 28.7 18 34.6 21.2 18.4 10 46.5 23.1 65.5 31.2 37.1 15.8 75.7 27 115 35.7 42 9.3 84.3 15.4 127.5 15.4 32.7 0 65.8-3.6 98-9 23.1-3.9 46-10.1 68.5-16.6 25.5-7.3 37.1-10.5 60.5-19.9 41.9-16.9 82.8-37.4 120.5-62.3 41.8-27.7 79.3-61.5 113.8-97.7 14.3-15 27.1-28.6 39.8-44.5 12.7-16 20.2-27.4 32.5-45.3 10.3-15.1 21.1-30.7 30.1-46.7 14.9-26.3 27.3-54 38.6-82 5.8-14.2 14.3-37.2 18.2-50 9.8-31.4 17.4-63 22-95.5 1.7-12 3.8-23.9 4.7-36 3.2-44.9 2.2-90.2-2.3-135-5-50.2-14.5-100.1-30.6-148-19.8-59.1-47.4-115.6-82.3-167.3-16.1-23.9-33.3-46.4-52.6-67.7-21.6-23.8-44.7-47.8-68.9-69.1-8.4-7.3-17.3-14-26-20.9-30.5-24-63.8-45.3-98.5-62.8-13.9-7-27.8-14-42-20.2-32.2-14.1-66-25.5-100-34.4-5.1-1.4-12-2.5-17-3.4-20.2-3.7-25.5-4.9-47.5-7.2-34.7-3.5-56.2-4.2-93-4.4-13 0-26 0.2-39 1z"/><path class="a" d="m1207 549.7c1.4 0.1 7.5 0.4 13.5 0.7 6 0.3 15.5 1.3 21 2.1 5.5 0.8 12.3 1.9 15 2.4 2.8 0.5 9 1.9 14 3.1 5 1.2 15.5 4.6 23.5 7.7 8 3 19.2 8 25 11 5.8 3 15 8.4 20.5 12 5.5 3.6 13.4 9.2 17.5 12.3 4.1 3.1 10.1 8.1 13.4 11.1 3.2 3 6.2 6.2 6.7 7.1 0.5 1 0.6 2.5 0.1 3.4-0.4 0.8-2.3 2-4.2 2.6-1.9 0.6-6 1.1-9 1.1-4.4 0-6.7-0.7-11.5-3.3-3.3-1.9-8.7-5.2-12-7.5-3.3-2.3-10.3-6.7-15.5-9.8-5.2-3.2-13-7.1-17.3-8.7-4.2-1.7-12.8-4.4-18.9-6.1-6.2-1.6-15.6-3.7-20.8-4.6-5.2-0.8-11.1-1.7-13-1.8-1.9-0.2-10.3-0.9-18.6-1.4-8.3-0.6-20.2-0.9-26.5-0.6-6.3 0.3-16.6 1-22.9 1.6-6.3 0.6-18 2.3-26 3.9-8 1.6-17 3.8-20 4.8-3 1.1-9.1 3.7-13.5 5.8-4.4 2.2-11.2 6-15 8.5-3.8 2.6-10.1 8-13.9 12-3.7 4.1-11.4 14.4-17.1 22.9-5.6 8.5-13.8 21.1-18 28-4.3 6.9-11.7 18.6-16.6 26-4.8 7.4-12.1 18.6-16.1 24.7-4 6.2-9.8 15.2-12.8 20-3 4.8-9.5 14.9-14.5 22.5-5 7.5-12.1 18.6-16 24.5-3.8 5.9-12.1 18.9-18.5 28.8-6.3 9.9-15.5 24.1-20.3 31.5-4.9 7.4-13.9 21.4-20 31-6.2 9.7-12.7 19.6-14.5 22-1.8 2.5-3.2 4.8-3.2 5.2 0 0.5-3.5 5.9-7.8 12-4.3 6.2-8 11.8-8.3 12.3-0.2 0.6-4.8 7.8-10.3 16-5.4 8.3-11.3 17.2-13.1 20-1.8 2.7-3.9 6.3-4.7 8-0.9 1.6-2.8 4.5-4.4 6.3-1.6 1.8-2.7 3.4-2.4 3.6 0.3 0.2 6.8-2.7 14.5-6.5 7.7-3.7 18.5-8.7 24-11 5.5-2.3 12.3-5.2 15-6.4 2.8-1.3 10.9-5 18-8.3 7.1-3.3 16.8-7.8 21.5-10 4.7-2.2 14.4-6.7 21.5-10 7.1-3.3 25.8-11.7 41.5-18.7 15.7-7 30.8-13.7 33.5-15 2.8-1.2 12.2-5.5 21-9.4 8.8-4 17.3-7.8 19-8.6 1.7-0.8 12.2-5.6 23.5-10.8 11.3-5.2 26.3-12.2 33.5-15.4 7.2-3.3 16.4-7.5 20.5-9.2 4.1-1.7 8.8-3.8 10.5-4.6 1.7-0.8 10-4.6 18.5-8.6 8.5-3.9 20-9 25.5-11.4 5.5-2.3 13.8-5.9 18.5-7.9 4.7-2.1 11.4-5 15-6.6 3.6-1.5 12.6-5.5 20-8.8 7.4-3.3 19.3-8.6 26.5-11.7 7.2-3.1 25.6-11.6 41-18.7 15.4-7.2 32.3-15.1 37.5-17.5 5.2-2.5 12.2-5.6 15.5-7 3.3-1.4 13.2-5.8 22-9.8 8.8-4 17.1-7.6 18.5-8 1.4-0.4 7.1-3 12.8-5.6 5.6-2.7 10.5-4.9 11-4.9 0.4 0 4.7-1.9 9.7-4.1 5-2.2 10.3-4.6 12-5.4 1.7-0.8 6.5-2.6 10.8-4 4.2-1.4 8.8-2.3 10.2-2 1.4 0.3 2.5 1.1 2.5 1.7 0.1 0.7-1.8 3.3-4.1 5.8-2.3 2.5-7.6 9.9-11.8 16.5-4.3 6.6-11.5 18.1-16 25.5-4.5 7.4-13.3 21.8-19.5 32-6.1 10.2-15.2 24.5-20.1 31.9-5 7.3-9.8 14.8-10.9 16.5-1 1.7-3.4 5.3-5.5 7.9-2 2.6-5.2 5.9-7.1 7.2-1.9 1.4-13.8 7.2-26.5 13.1-12.7 5.8-25 11.5-27.5 12.6-2.5 1.1-6.1 2.7-8 3.6-1.9 0.8-7.8 3.5-13 6-5.2 2.4-12.9 5.9-17 7.7-4.1 1.8-14.5 6.3-23 10-8.5 3.7-20.5 9-26.5 11.7-6 2.7-14.4 6.5-18.5 8.5-4.1 1.9-11.8 5.4-17 7.8-5.2 2.3-15.3 6.9-22.5 10-7.2 3.2-19.5 8.8-27.5 12.5-8 3.7-21.9 10.1-31 14.2-9.1 4.2-22.8 10.4-30.5 13.8-7.7 3.4-16.9 7.5-20.5 9-3.6 1.6-14.8 6.7-25 11.3-10.2 4.7-27.5 12.6-38.5 17.6-11 5.1-24.2 11.2-29.2 13.6-5.1 2.5-9.5 4.5-9.8 4.5-0.3 0-7.6 3.2-16.2 7.1-8.7 3.9-25.3 11.5-36.8 16.9-11.5 5.4-26.2 12.1-32.5 15-6.3 2.9-17.1 7.7-24 10.7-6.9 3-20.4 9-30 13.5-9.6 4.4-23.6 10.8-31 14.3-7.4 3.5-18.7 8.6-25 11.5-6.3 2.8-12.9 5.7-14.5 6.5-1.6 0.7-9.3 4.2-17 7.6-7.7 3.4-23.2 10.5-34.5 15.7-11.3 5.2-23.9 10.9-28 12.7-4.1 1.8-9.3 4.2-11.5 5.3-2.2 1.1-11.4 5.4-20.5 9.5-9.1 4.1-22.4 10-29.5 13.2-7.1 3.1-16.4 7.2-20.5 9.2-4.1 1.9-9.3 4.3-11.5 5.3-2.2 1-6 2.7-8.5 3.8-2.5 1.1-7 3-10 4.2-3 1.2-9.9 3.7-15.2 5.6-5.4 1.9-10.3 3.2-10.8 2.9-0.5-0.3-1-1.1-1-1.8 0-0.6 1.4-3.2 3.3-5.7 1.8-2.5 5.8-8.8 8.7-14 3-5.2 6.1-10.6 7.1-12 0.9-1.4 6.2-11 11.8-21.5 5.6-10.5 10.6-19.7 11.1-20.5 0.5-0.8 2.3-4 4-7 1.6-3 5-8.7 7.4-12.5 2.5-3.8 7.1-11.4 10.3-16.7 3.2-5.4 12.9-21.8 21.6-36.5 8.8-14.8 18.2-30.4 21-34.8 2.7-4.4 6-9.6 7.2-11.5 1.2-1.9 6.5-10.8 11.8-19.8 5.4-8.9 9.7-16.4 9.7-16.7 0-0.3 2.3-4.4 5.2-9.3 2.8-4.8 7.2-12.3 9.8-16.7 2.6-4.4 8-13.7 12.1-20.8 4.1-7 9.4-16.4 11.8-21 2.4-4.5 12.2-21.5 21.9-37.7 9.6-16.2 19.6-33.1 22.2-37.5 2.6-4.4 9.6-16.5 15.6-26.8 6-10.4 12-20.8 13.4-23.1 1.4-2.4 5.3-9.2 8.6-15.2 3.4-6 10.6-18.8 15.9-28.4 5.3-9.6 10.7-18.9 11.9-20.5 1.2-1.7 3.9-5.9 5.9-9.5 2-3.6 6.5-11 10.1-16.5 3.5-5.5 9.3-14.2 12.8-19.3 3.4-5.1 9.1-13 12.6-17.5 3.5-4.5 9.8-11.7 14-16 4.2-4.3 10.8-10.4 14.6-13.5 3.8-3.1 9.7-7.6 13-9.9 3.4-2.3 11.1-7.1 17.1-10.6 6-3.6 18.9-10.4 28.5-15.2 9.6-4.8 20.6-10.1 24.5-11.7 3.9-1.6 13.3-5.4 21-8.5 7.7-3 20.1-7.5 27.5-10 7.4-2.4 19.1-5.9 26-7.8 6.9-1.8 21.3-5.1 32-7.4 10.7-2.2 22.4-4.5 26-5.1 3.6-0.7 7.8-1.4 9.5-1.6 1.7-0.2 6.6-0.9 11-1.5 4.4-0.6 16.3-1.4 26.5-1.8 10.2-0.4 19.6-0.6 21-0.4zm71.8 419.3c0.1 0 1 0.3 1.9 0.6 1.1 0.4 1.7 1.5 1.6 2.8-0.1 1.1-0.9 2.8-1.8 3.6-0.9 0.8-1.6 1.8-1.5 2.2 0 0.5-2.7 5.4-5.9 11-3.3 5.7-8.3 14-11.3 18.5-2.9 4.6-7.5 11.9-10.3 16.4-2.7 4.4-6.6 10.6-8.6 13.7-2 3.1-5.8 9.1-8.4 13.2-2.6 4.1-6.7 10.4-9 14-2.3 3.6-7.7 12.3-12 19.5-4.3 7.2-17.1 26.9-28.4 44-11.3 17-21.2 32.2-22.1 33.7-0.8 1.5-4 6.2-7 10.4-3 4.2-9.5 12.6-14.4 18.8-4.9 6.1-14.2 16.9-20.6 24.1-6.5 7.2-18.6 19.7-27.1 27.9-8.5 8.3-21.2 20-28.4 26.1-7.2 6.1-15.9 13.3-19.5 16.1-3.6 2.8-9 6.8-12 8.9-3 2.2-9.3 6.4-14 9.5-4.7 3.1-9.9 6.4-11.5 7.4-1.6 0.9-5.2 3.1-8 4.8-2.7 1.7-9 5.3-14 8.1-5 2.7-15.1 8-22.5 11.7-7.4 3.7-18.2 8.8-24 11.3-5.8 2.5-17.9 7.4-27 11-9.1 3.7-23.2 8.8-31.5 11.6-8.2 2.7-22.2 6.8-31 9.1-8.8 2.2-21.6 5.2-28.5 6.6-6.9 1.4-22.6 3.8-35 5.5-12.4 1.6-32.2 3.5-44 4.1-16.4 0.9-28.1 0.9-49 0-15.1-0.6-29.5-1.6-32-2.2-2.5-0.5-9.7-1.4-16-1.9-6.3-0.6-13.5-1.3-16-1.6-2.5-0.3-7.9-1.2-12-2-4.1-0.9-11.5-2.6-16.5-3.9-5-1.3-10.8-2.8-13-3.2-3.1-0.7-4.1-1.4-4.2-3.2-0.3-2 0.4-2.4 6.5-3.7 3.7-0.8 12.6-2.1 19.7-2.9 7.1-0.9 18.2-2 24.5-2.6 6.3-0.6 14.4-1.5 18-2 3.6-0.5 11.2-1.7 17-2.5 5.8-0.9 15.7-2.7 22-4.1 6.3-1.4 14.2-3.1 17.5-3.8 3.3-0.8 10.3-2.6 15.5-4 5.2-1.5 16.9-5 26-7.8 9.1-2.8 26.6-8.8 39-13.3 12.4-4.5 29-11 37-14.5 8-3.4 24.4-11.2 36.5-17.3 12.1-6 28.3-14.5 36-19 7.7-4.4 17.6-10.4 22-13.3 4.4-2.9 11.2-7.4 15-10.1 3.9-2.6 9.9-7 13.5-9.7 3.6-2.8 11-8.6 16.4-13 5.5-4.5 14.5-12.2 20-17.1 5.5-5 15.4-14.2 22-20.5 6.5-6.3 20.3-20.7 30.5-32 10.2-11.3 23.3-26.7 29.1-34.3 5.8-7.6 12.3-16.2 14.5-19.2 2.2-3 7.6-10.4 12-16.6 4.4-6.1 10.2-14.4 12.9-18.3 2.7-3.9 6.6-9.6 8.6-12.6 2.1-3 6.5-10.9 10-17.5 3.4-6.6 7.2-13 8.4-14.3 1.2-1.3 3.3-2.2 4.9-2.2 1.5 0 10.9-4 21-8.9 10-4.8 19.1-9.1 20.2-9.4 1.1-0.4 9-4.1 17.5-8.3 8.5-4.2 18-8.7 21-10.1 3-1.4 10.7-4.5 17-7 6.3-2.5 18.5-7.2 27-10.4 8.5-3.2 15.6-5.8 15.8-5.9z"/></svg>
